<svg height="2238" width="720" xmlns="http://www.w3.org/2000/svg">
<rect height="2238" fill="#555" width="720"></rect>
<text fill="#7f7" font-family="Courier New" font-size="12" xml:space="preserve">
<tspan x="10" y="26">├── UNMET PEER DEPENDENCY grunt@&gt;=0.4.0</tspan>
<tspan x="10" y="42">└─┬ grunt-uncss@0.6.1 </tspan>
<tspan x="10" y="58">  ├─┬ async@2.3.0 </tspan>
<tspan x="10" y="74">  │ └── lodash@4.17.4 </tspan>
<tspan x="10" y="90">  ├─┬ chalk@1.1.3 </tspan>
<tspan x="10" y="106">  │ ├── ansi-styles@2.2.1 </tspan>
<tspan x="10" y="122">  │ ├── escape-string-regexp@1.0.5 </tspan>
<tspan x="10" y="138">  │ ├─┬ has-ansi@2.0.0 </tspan>
<tspan x="10" y="154">  │ │ └── ansi-regex@2.1.1 </tspan>
<tspan x="10" y="170">  │ ├── strip-ansi@3.0.1 </tspan>
<tspan x="10" y="186">  │ └── supports-color@2.0.0 </tspan>
<tspan x="10" y="202">  ├─┬ maxmin@2.1.0 </tspan>
<tspan x="10" y="218">  │ ├── figures@1.7.0 </tspan>
<tspan x="10" y="234">  │ ├─┬ gzip-size@3.0.0 </tspan>
<tspan x="10" y="250">  │ │ └── duplexer@0.1.1 </tspan>
<tspan x="10" y="266">  │ └─┬ pretty-bytes@3.0.1 </tspan>
<tspan x="10" y="282">  │   └── number-is-nan@1.0.1 </tspan>
<tspan x="10" y="298">  └─┬ uncss@0.14.1 </tspan>
<tspan x="10" y="314">    ├── async@1.5.2 </tspan>
<tspan x="10" y="330">    ├── bluebird@3.1.5 </tspan>
<tspan x="10" y="346">    ├─┬ commander@2.9.0 </tspan>
<tspan x="10" y="362">    │ └── graceful-readlink@1.0.1 </tspan>
<tspan x="10" y="378">    ├─┬ glob@6.0.4 </tspan>
<tspan x="10" y="394">    │ ├─┬ inflight@1.0.6 </tspan>
<tspan x="10" y="410">    │ │ └── wrappy@1.0.2 </tspan>
<tspan x="10" y="426">    │ ├── inherits@2.0.3 </tspan>
<tspan x="10" y="442">    │ ├─┬ minimatch@3.0.3 </tspan>
<tspan x="10" y="458">    │ │ └─┬ brace-expansion@1.1.6 </tspan>
<tspan x="10" y="474">    │ │   ├── balanced-match@0.4.2 </tspan>
<tspan x="10" y="490">    │ │   └── concat-map@0.0.1 </tspan>
<tspan x="10" y="506">    │ ├── once@1.4.0 </tspan>
<tspan x="10" y="522">    │ └── path-is-absolute@1.0.1 </tspan>
<tspan x="10" y="538">    ├── is-absolute-url@2.0.0 </tspan>
<tspan x="10" y="554">    ├─┬ is-html@1.0.0 </tspan>
<tspan x="10" y="570">    │ └── html-tags@1.1.1 </tspan>
<tspan x="10" y="586">    ├── lodash@4.0.1 </tspan>
<tspan x="10" y="602">    ├── object-assign@4.1.1 </tspan>
<tspan x="10" y="618">    ├─┬ phridge@2.0.0 </tspan>
<tspan x="10" y="634">    │ ├── fork-stream@0.0.4 </tspan>
<tspan x="10" y="650">    │ ├── linerstream@0.1.4 </tspan>
<tspan x="10" y="666">    │ ├─┬ phantomjs-prebuilt@2.1.14 </tspan>
<tspan x="10" y="682">    │ │ ├── es6-promise@4.0.5 </tspan>
<tspan x="10" y="698">    │ │ ├─┬ extract-zip@1.5.0 </tspan>
<tspan x="10" y="714">    │ │ │ ├─┬ concat-stream@1.5.0 </tspan>
<tspan x="10" y="730">    │ │ │ │ └── typedarray@0.0.6 </tspan>
<tspan x="10" y="746">    │ │ │ ├── debug@0.7.4 </tspan>
<tspan x="10" y="762">    │ │ │ ├─┬ mkdirp@0.5.0 </tspan>
<tspan x="10" y="778">    │ │ │ │ └── minimist@0.0.8 </tspan>
<tspan x="10" y="794">    │ │ │ └─┬ yauzl@2.4.1 </tspan>
<tspan x="10" y="810">    │ │ │   └─┬ fd-slicer@1.0.1 </tspan>
<tspan x="10" y="826">    │ │ │     └── pend@1.2.0 </tspan>
<tspan x="10" y="842">    │ │ ├─┬ fs-extra@1.0.0 </tspan>
<tspan x="10" y="858">    │ │ │ ├── graceful-fs@4.1.11 </tspan>
<tspan x="10" y="874">    │ │ │ ├── jsonfile@2.4.0 </tspan>
<tspan x="10" y="890">    │ │ │ └── klaw@1.3.1 </tspan>
<tspan x="10" y="906">    │ │ ├─┬ hasha@2.2.0 </tspan>
<tspan x="10" y="922">    │ │ │ └── is-stream@1.1.0 </tspan>
<tspan x="10" y="938">    │ │ ├── kew@0.7.0 </tspan>
<tspan x="10" y="954">    │ │ ├── progress@1.1.8 </tspan>
<tspan x="10" y="970">    │ │ ├─┬ request@2.79.0 </tspan>
<tspan x="10" y="986">    │ │ │ ├─┬ form-data@2.1.2 </tspan>
<tspan x="10" y="1002">    │ │ │ │ └── asynckit@0.4.0 </tspan>
<tspan x="10" y="1018">    │ │ │ ├── qs@6.3.2 </tspan>
<tspan x="10" y="1034">    │ │ │ ├─┬ tough-cookie@2.3.2 </tspan>
<tspan x="10" y="1050">    │ │ │ │ └── punycode@1.4.1 </tspan>
<tspan x="10" y="1066">    │ │ │ └── uuid@3.0.1 </tspan>
<tspan x="10" y="1082">    │ │ ├─┬ request-progress@2.0.1 </tspan>
<tspan x="10" y="1098">    │ │ │ └── throttleit@1.0.0 </tspan>
<tspan x="10" y="1114">    │ │ └─┬ which@1.2.14 </tspan>
<tspan x="10" y="1130">    │ │   └── isexe@2.0.0 </tspan>
<tspan x="10" y="1146">    │ └─┬ temp@0.8.3 </tspan>
<tspan x="10" y="1162">    │   ├── os-tmpdir@1.0.2 </tspan>
<tspan x="10" y="1178">    │   └── rimraf@2.2.8 </tspan>
<tspan x="10" y="1194">    ├─┬ postcss@5.0.21 </tspan>
<tspan x="10" y="1210">    │ ├── js-base64@2.1.9 </tspan>
<tspan x="10" y="1226">    │ ├── source-map@0.5.6 </tspan>
<tspan x="10" y="1242">    │ └─┬ supports-color@3.2.3 </tspan>
<tspan x="10" y="1258">    │   └── has-flag@1.0.0 </tspan>
<tspan x="10" y="1274">    └─┬ request@2.69.0 </tspan>
<tspan x="10" y="1290">      ├── aws-sign2@0.6.0 </tspan>
<tspan x="10" y="1306">      ├── aws4@1.6.0 </tspan>
<tspan x="10" y="1322">      ├─┬ bl@1.0.3 </tspan>
<tspan x="10" y="1338">      │ └─┬ readable-stream@2.0.6 </tspan>
<tspan x="10" y="1354">      │   ├── core-util-is@1.0.2 </tspan>
<tspan x="10" y="1370">      │   ├── isarray@1.0.0 </tspan>
<tspan x="10" y="1386">      │   ├── process-nextick-args@1.0.7 </tspan>
<tspan x="10" y="1402">      │   ├── string_decoder@0.10.31 </tspan>
<tspan x="10" y="1418">      │   └── util-deprecate@1.0.2 </tspan>
<tspan x="10" y="1434">      ├── caseless@0.11.0 </tspan>
<tspan x="10" y="1450">      ├─┬ combined-stream@1.0.5 </tspan>
<tspan x="10" y="1466">      │ └── delayed-stream@1.0.0 </tspan>
<tspan x="10" y="1482">      ├── extend@3.0.0 </tspan>
<tspan x="10" y="1498">      ├── forever-agent@0.6.1 </tspan>
<tspan x="10" y="1514">      ├── form-data@1.0.1 </tspan>
<tspan x="10" y="1530">      ├─┬ har-validator@2.0.6 </tspan>
<tspan x="10" y="1546">      │ ├─┬ is-my-json-valid@2.16.0 </tspan>
<tspan x="10" y="1562">      │ │ ├── generate-function@2.0.0 </tspan>
<tspan x="10" y="1578">      │ │ ├─┬ generate-object-property@1.2.0 </tspan>
<tspan x="10" y="1594">      │ │ │ └── is-property@1.0.2 </tspan>
<tspan x="10" y="1610">      │ │ ├── jsonpointer@4.0.1 </tspan>
<tspan x="10" y="1626">      │ │ └── xtend@4.0.1 </tspan>
<tspan x="10" y="1642">      │ └─┬ pinkie-promise@2.0.1 </tspan>
<tspan x="10" y="1658">      │   └── pinkie@2.0.4 </tspan>
<tspan x="10" y="1674">      ├─┬ hawk@3.1.3 </tspan>
<tspan x="10" y="1690">      │ ├── boom@2.10.1 </tspan>
<tspan x="10" y="1706">      │ ├── cryptiles@2.0.5 </tspan>
<tspan x="10" y="1722">      │ ├── hoek@2.16.3 </tspan>
<tspan x="10" y="1738">      │ └── sntp@1.0.9 </tspan>
<tspan x="10" y="1754">      ├─┬ http-signature@1.1.1 </tspan>
<tspan x="10" y="1770">      │ ├── assert-plus@0.2.0 </tspan>
<tspan x="10" y="1786">      │ ├─┬ jsprim@1.4.0 </tspan>
<tspan x="10" y="1802">      │ │ ├── assert-plus@1.0.0 </tspan>
<tspan x="10" y="1818">      │ │ ├── extsprintf@1.0.2 </tspan>
<tspan x="10" y="1834">      │ │ ├── json-schema@0.2.3 </tspan>
<tspan x="10" y="1850">      │ │ └── verror@1.3.6 </tspan>
<tspan x="10" y="1866">      │ └─┬ sshpk@1.11.0 </tspan>
<tspan x="10" y="1882">      │   ├── asn1@0.2.3 </tspan>
<tspan x="10" y="1898">      │   ├── assert-plus@1.0.0 </tspan>
<tspan x="10" y="1914">      │   ├── bcrypt-pbkdf@1.0.1 </tspan>
<tspan x="10" y="1930">      │   ├─┬ dashdash@1.14.1 </tspan>
<tspan x="10" y="1946">      │   │ └── assert-plus@1.0.0 </tspan>
<tspan x="10" y="1962">      │   ├── ecc-jsbn@0.1.1 </tspan>
<tspan x="10" y="1978">      │   ├─┬ getpass@0.1.6 </tspan>
<tspan x="10" y="1994">      │   │ └── assert-plus@1.0.0 </tspan>
<tspan x="10" y="2010">      │   ├── jodid25519@1.0.2 </tspan>
<tspan x="10" y="2026">      │   ├── jsbn@0.1.1 </tspan>
<tspan x="10" y="2042">      │   └── tweetnacl@0.14.5 </tspan>
<tspan x="10" y="2058">      ├── is-typedarray@1.0.0 </tspan>
<tspan x="10" y="2074">      ├── isstream@0.1.2 </tspan>
<tspan x="10" y="2090">      ├── json-stringify-safe@5.0.1 </tspan>
<tspan x="10" y="2106">      ├─┬ mime-types@2.1.15 </tspan>
<tspan x="10" y="2122">      │ └── mime-db@1.27.0 </tspan>
<tspan x="10" y="2138">      ├── node-uuid@1.4.8 </tspan>
<tspan x="10" y="2154">      ├── oauth-sign@0.8.2 </tspan>
<tspan x="10" y="2170">      ├── qs@6.0.4 </tspan>
<tspan x="10" y="2186">      ├── stringstream@0.0.5 </tspan>
<tspan x="10" y="2202">      ├── tough-cookie@2.2.2 </tspan>
<tspan x="10" y="2218">      └── tunnel-agent@0.4.3</tspan>
</text>
</svg>
